<svg id="圖層_1" data-name="圖層 1" xmlns="http://www.w3.org/2000/svg" viewBox="0 0 418.96 78.95"><defs><style>.cls-1{fill:#fff;}</style></defs><title>navilogo_copyright</title><path class="cls-1" d="M202.7,89.43a27.3,27.3,0,0,1-11.45,2.27,29.85,29.85,0,0,1-10.91-1.94,25.18,25.18,0,0,1-14.44-14,28,28,0,0,1-2.09-10.94,27.93,27.93,0,0,1,2.12-11.09,24.66,24.66,0,0,1,5.87-8.46,26,26,0,0,1,8.78-5.36,31.49,31.49,0,0,1,21.49,0,20.34,20.34,0,0,1,8.46,5.58l-8.35,8.35a10.34,10.34,0,0,0-4.54-3.53,15.06,15.06,0,0,0-5.76-1.15A14.59,14.59,0,0,0,186,50.33a13.94,13.94,0,0,0-4.64,3.28,14.94,14.94,0,0,0-3,4.93,17.41,17.41,0,0,0-1.08,6.23,17.91,17.91,0,0,0,1.08,6.34,14.74,14.74,0,0,0,3,4.93,13.44,13.44,0,0,0,4.57,3.2,14.52,14.52,0,0,0,5.83,1.15,13.56,13.56,0,0,0,6.41-1.44,12.41,12.41,0,0,0,4.39-3.74L211,83.27A24.28,24.28,0,0,1,202.7,89.43Z" transform="translate(-58.56 -24.6)"/><path class="cls-1" d="M251.95,89.43a27.3,27.3,0,0,1-11.45,2.27,29.85,29.85,0,0,1-10.91-1.94,25.18,25.18,0,0,1-14.44-14,28,28,0,0,1-2.09-10.94,27.93,27.93,0,0,1,2.12-11.09,24.66,24.66,0,0,1,5.87-8.46,26,26,0,0,1,8.78-5.36,31.49,31.49,0,0,1,21.49,0,20.35,20.35,0,0,1,8.46,5.58l-8.35,8.35a10.34,10.34,0,0,0-4.54-3.53,15.06,15.06,0,0,0-5.76-1.15,14.59,14.59,0,0,0-5.94,1.19,13.94,13.94,0,0,0-4.64,3.28,14.94,14.94,0,0,0-3,4.93,17.41,17.41,0,0,0-1.08,6.23,17.91,17.91,0,0,0,1.08,6.34,14.74,14.74,0,0,0,3,4.93,13.44,13.44,0,0,0,4.57,3.2,14.52,14.52,0,0,0,5.83,1.15,13.56,13.56,0,0,0,6.41-1.44,12.41,12.41,0,0,0,4.39-3.74l8.57,8.06A24.29,24.29,0,0,1,251.95,89.43Z" transform="translate(-58.56 -24.6)"/><path class="cls-1" d="M307.21,79.49A18.26,18.26,0,0,1,302.78,86a20.44,20.44,0,0,1-6.95,4.21,27.87,27.87,0,0,1-18.11,0A19.7,19.7,0,0,1,270.88,86a18.29,18.29,0,0,1-4.32-6.48,22.4,22.4,0,0,1-1.51-8.39V39.35h12.24V70.09a14.2,14.2,0,0,0,.54,4,10.13,10.13,0,0,0,1.66,3.35,7.76,7.76,0,0,0,3,2.34,11.78,11.78,0,0,0,8.86,0,8.09,8.09,0,0,0,3-2.34,9.33,9.33,0,0,0,1.66-3.35,15.17,15.17,0,0,0,.5-4V39.35h12.31V71.1A22,22,0,0,1,307.21,79.49Z" transform="translate(-58.56 -24.6)"/><path class="cls-1" d="M320.2,39.35h14.4a27.94,27.94,0,0,1,7.06.83,15.58,15.58,0,0,1,5.44,2.52,11.35,11.35,0,0,1,3.49,4.25,13.79,13.79,0,0,1,1.22,6,13.46,13.46,0,0,1-1.26,6A11.66,11.66,0,0,1,347,63.22a16,16,0,0,1-5.47,2.56,27.21,27.21,0,0,1-7.09.86h-9.07V90.33H320.2v-51Zm5.19,22.9h8.78q6.12,0,9.29-2.38A8.11,8.11,0,0,0,346.63,53q0-4.75-3.28-6.95t-9.18-2.2h-8.78V62.25Z" transform="translate(-58.56 -24.6)"/><path class="cls-1" d="M367.14,85.72H390.9v4.61H362v-51h5.18V85.72Z" transform="translate(-58.56 -24.6)"/><path class="cls-1" d="M415.75,91.62a19.79,19.79,0,0,1-9.43-2,16.82,16.82,0,0,1-5.83-5,18.41,18.41,0,0,1-3-6.59,29.8,29.8,0,0,1-.83-6.73v-32h5.18V70.74a25,25,0,0,0,.72,6,15,15,0,0,0,2.34,5.18,12.08,12.08,0,0,0,4.28,3.67,16,16,0,0,0,13.1,0,12.09,12.09,0,0,0,4.28-3.67,15,15,0,0,0,2.34-5.18,25.07,25.07,0,0,0,.72-6V39.35h5.18v32A29.81,29.81,0,0,1,434,78a18.41,18.41,0,0,1-3,6.59,16.74,16.74,0,0,1-5.87,5A19.84,19.84,0,0,1,415.75,91.62Z" transform="translate(-58.56 -24.6)"/><path class="cls-1" d="M472.77,47.56a12.45,12.45,0,0,0-4.25-3.71,13,13,0,0,0-6.26-1.4,13.41,13.41,0,0,0-3.82.58,11.07,11.07,0,0,0-3.53,1.76,9.07,9.07,0,0,0-2.56,3,8.82,8.82,0,0,0-1,4.25,7.85,7.85,0,0,0,.93,4,8.85,8.85,0,0,0,2.48,2.7,14.33,14.33,0,0,0,3.52,1.84q2,0.72,4.13,1.44,2.66,0.86,5.35,1.87a19.26,19.26,0,0,1,4.85,2.63,12.73,12.73,0,0,1,3.52,4.1,13,13,0,0,1,1.36,6.3,14,14,0,0,1-1.46,6.59,13.81,13.81,0,0,1-3.78,4.57A15.73,15.73,0,0,1,467,90.76a21.58,21.58,0,0,1-6,.86,23.13,23.13,0,0,1-4.61-.47,20.86,20.86,0,0,1-4.39-1.4,17.86,17.86,0,0,1-3.89-2.38,17.21,17.21,0,0,1-3.17-3.31l4.46-3.31A13.64,13.64,0,0,0,454,85.32a13.13,13.13,0,0,0,7,1.84,13.59,13.59,0,0,0,4-.61,11.14,11.14,0,0,0,3.64-1.87,10.37,10.37,0,0,0,2.66-3.1,9.61,9.61,0,0,0,0-8.71,9.3,9.3,0,0,0-2.77-3,17,17,0,0,0-4-2q-2.23-.79-4.68-1.58t-5-1.8a16.8,16.8,0,0,1-4.39-2.63,12.28,12.28,0,0,1-3.13-4,13,13,0,0,1-1.19-5.83,12.87,12.87,0,0,1,1.48-6.34,13.35,13.35,0,0,1,3.85-4.39,16.14,16.14,0,0,1,5.26-2.52,21.38,21.38,0,0,1,5.69-.79,19.63,19.63,0,0,1,8.86,1.84,15.22,15.22,0,0,1,5.54,4.36Z" transform="translate(-58.56 -24.6)"/><path class="cls-1" d="M58.56,64.13a39.15,39.15,0,0,1,5.4-20A40.13,40.13,0,0,1,78.11,30a39.23,39.23,0,0,1,39.8,0,40.91,40.91,0,0,1,8,6.18,38.65,38.65,0,0,1,6.18,8,40,40,0,0,1,4,9.45,39.78,39.78,0,0,1,0,21,39.45,39.45,0,0,1-4,9.42,38.93,38.93,0,0,1-6.18,8,40.87,40.87,0,0,1-8,6.18,39.17,39.17,0,0,1-39.8,0A40.34,40.34,0,0,1,64,84,38.76,38.76,0,0,1,58.56,64.13Zm5.45,0a35.39,35.39,0,0,0,4.56,17.52,32.9,32.9,0,0,0,5.29,7A34.51,34.51,0,0,0,80.73,94a33,33,0,0,0,8.13,3.46,34,34,0,0,0,38.72-15.82A35.4,35.4,0,0,0,131,73.36a35.78,35.78,0,0,0-1.46-22.81,35.26,35.26,0,0,0-7.29-11.07A34,34,0,0,0,111.38,32a34.21,34.21,0,0,0-22.52-1.48,33.33,33.33,0,0,0-15,8.91,34.22,34.22,0,0,0-5.29,7,35,35,0,0,0-3.37,8.34A36.08,36.08,0,0,0,64,64.13Zm47.79,13.07a1.83,1.83,0,0,1,1.46.59l3.24,3.46A21.06,21.06,0,0,1,109,86.78a26.36,26.36,0,0,1-10.72,2,24.54,24.54,0,0,1-9.64-1.84,21.7,21.7,0,0,1-7.45-5.13A23.08,23.08,0,0,1,76.36,74,28.08,28.08,0,0,1,74.66,64a26.6,26.6,0,0,1,1.84-10,22.94,22.94,0,0,1,5.13-7.83,23.22,23.22,0,0,1,7.8-5.08,26.08,26.08,0,0,1,9.8-1.81,24.52,24.52,0,0,1,10,1.81,24,24,0,0,1,7.15,4.83l-2.48,3.51a4.17,4.17,0,0,1-.7.65,1.66,1.66,0,0,1-1,.32,2.78,2.78,0,0,1-1.59-.59,21.78,21.78,0,0,0-2.19-1.32,19.94,19.94,0,0,0-15.5-.76,14.54,14.54,0,0,0-5.18,3.48,15.08,15.08,0,0,0-3.29,5.51A22,22,0,0,0,83.24,64a22.08,22.08,0,0,0,1.16,7.42,15.63,15.63,0,0,0,3.21,5.48A13.6,13.6,0,0,0,92.5,80.3a16.15,16.15,0,0,0,6.18,1.16,21.46,21.46,0,0,0,4.7-.43A19,19,0,0,0,106.7,80a17.43,17.43,0,0,0,2.59-1.38A22.28,22.28,0,0,1,111.81,77.19Z" transform="translate(-58.56 -24.6)"/></svg>