<svg id="圖層_1" data-name="圖層 1" xmlns="http://www.w3.org/2000/svg" viewBox="0 0 450.43 120.25"><defs><style>.cls-1{fill:#666;}.cls-2{fill:#999;}.cls-3{fill:#ccc;}.cls-4{fill:#efefef;}</style></defs><title>navi</title><path class="cls-1" d="M265.73,90.7A27.29,27.29,0,0,1,254.28,93,29.87,29.87,0,0,1,243.37,91a25.18,25.18,0,0,1-14.44-14A28,28,0,0,1,226.85,66,27.93,27.93,0,0,1,229,55a24.67,24.67,0,0,1,5.87-8.46,26,26,0,0,1,8.78-5.36,31.49,31.49,0,0,1,21.49,0,20.34,20.34,0,0,1,8.46,5.58l-8.35,8.35a10.34,10.34,0,0,0-4.54-3.53,15.07,15.07,0,0,0-5.76-1.15A14.59,14.59,0,0,0,249,51.61a13.94,13.94,0,0,0-4.64,3.28,14.93,14.93,0,0,0-3,4.93A17.41,17.41,0,0,0,240.24,66a17.91,17.91,0,0,0,1.08,6.34,14.74,14.74,0,0,0,3,4.93,13.44,13.44,0,0,0,4.57,3.2,14.52,14.52,0,0,0,5.83,1.15,13.56,13.56,0,0,0,6.41-1.44,12.42,12.42,0,0,0,4.39-3.74l8.57,8.06A24.27,24.27,0,0,1,265.73,90.7Z" transform="translate(-92.28 -3.75)"/><path class="cls-1" d="M315,90.7A27.29,27.29,0,0,1,303.53,93,29.87,29.87,0,0,1,292.62,91a25.18,25.18,0,0,1-14.44-14A28,28,0,0,1,276.09,66,27.94,27.94,0,0,1,278.22,55a24.67,24.67,0,0,1,5.87-8.46,26,26,0,0,1,8.78-5.36,31.49,31.49,0,0,1,21.49,0,20.34,20.34,0,0,1,8.46,5.58l-8.35,8.35a10.34,10.34,0,0,0-4.54-3.53,15.07,15.07,0,0,0-5.76-1.15,14.59,14.59,0,0,0-5.94,1.19,13.94,13.94,0,0,0-4.64,3.28,15,15,0,0,0-3,4.93A17.42,17.42,0,0,0,289.49,66a17.92,17.92,0,0,0,1.08,6.34,14.76,14.76,0,0,0,3,4.93,13.44,13.44,0,0,0,4.57,3.2A14.52,14.52,0,0,0,304,81.67a13.56,13.56,0,0,0,6.41-1.44,12.42,12.42,0,0,0,4.39-3.74l8.57,8.06A24.26,24.26,0,0,1,315,90.7Z" transform="translate(-92.28 -3.75)"/><path class="cls-1" d="M370.23,80.77a18.26,18.26,0,0,1-4.43,6.48,20.44,20.44,0,0,1-6.95,4.21,27.87,27.87,0,0,1-18.11,0,19.7,19.7,0,0,1-6.84-4.21,18.3,18.3,0,0,1-4.32-6.48,22.4,22.4,0,0,1-1.51-8.39V40.63h12.24V71.37a14.19,14.19,0,0,0,.54,4,10.12,10.12,0,0,0,1.66,3.35,7.76,7.76,0,0,0,3,2.34,11.78,11.78,0,0,0,8.86,0,8.09,8.09,0,0,0,3-2.34A9.33,9.33,0,0,0,359,75.33a15.16,15.16,0,0,0,.5-4V40.63h12.31V72.38A22,22,0,0,1,370.23,80.77Z" transform="translate(-92.28 -3.75)"/><path class="cls-2" d="M382.65,40.63h15.55a31.59,31.59,0,0,1,7.49.83A16.26,16.26,0,0,1,411.45,44a11.65,11.65,0,0,1,3.67,4.39,14.53,14.53,0,0,1,1.3,6.41,14.18,14.18,0,0,1-1.4,6.55,12,12,0,0,1-3.89,4.46,17.4,17.4,0,0,1-5.9,2.56,31.33,31.33,0,0,1-7.38.83h-8.06V91.6h-7.13v-51Zm7.13,22.54h7.56a23,23,0,0,0,4.79-.47,11.94,11.94,0,0,0,3.78-1.44,6.77,6.77,0,0,0,2.45-2.56,8,8,0,0,0,.86-3.89,7.57,7.57,0,0,0-.9-3.85,7.26,7.26,0,0,0-2.45-2.52,10.49,10.49,0,0,0-3.71-1.37,26.1,26.1,0,0,0-4.68-.4h-7.7V63.16Z" transform="translate(-92.28 -3.75)"/><path class="cls-2" d="M432.62,85.27h22.75V91.6H425.49v-51h7.13V85.27Z" transform="translate(-92.28 -3.75)"/><path class="cls-2" d="M480,92.9a21.16,21.16,0,0,1-8.78-1.69,17.77,17.77,0,0,1-6.19-4.5,18.36,18.36,0,0,1-3.64-6.44,24.08,24.08,0,0,1-1.19-7.52V40.63h7.13V72.31a20.84,20.84,0,0,0,.65,5.15A13.08,13.08,0,0,0,470.1,82,10.72,10.72,0,0,0,474,85.27a15.29,15.29,0,0,0,12,0A10.68,10.68,0,0,0,489.9,82,13.11,13.11,0,0,0,492,77.46a20.88,20.88,0,0,0,.65-5.15V40.63h7.13V72.74a24.08,24.08,0,0,1-1.19,7.52A18.39,18.39,0,0,1,495,86.71a17.8,17.8,0,0,1-6.19,4.5A21.17,21.17,0,0,1,480,92.9Z" transform="translate(-92.28 -3.75)"/><path class="cls-2" d="M537.16,50.06a11.37,11.37,0,0,0-4.1-3.42,12.57,12.57,0,0,0-5.83-1.33,13.59,13.59,0,0,0-3.49.47,9.61,9.61,0,0,0-3.2,1.51,8.35,8.35,0,0,0-2.34,2.59,7.24,7.24,0,0,0-.9,3.71,6.76,6.76,0,0,0,.83,3.49,7.49,7.49,0,0,0,2.23,2.38,14.18,14.18,0,0,0,3.31,1.66q1.91,0.69,4.07,1.4,2.59,0.79,5.26,1.8A18.88,18.88,0,0,1,537.81,67a13.13,13.13,0,0,1,3.53,4.14,13,13,0,0,1,1.37,6.3,15.06,15.06,0,0,1-1.48,6.88,14.07,14.07,0,0,1-3.92,4.82A16.71,16.71,0,0,1,531.66,92a23.42,23.42,0,0,1-6.59.94A24,24,0,0,1,515.74,91a18.49,18.49,0,0,1-7.45-5.54l5.54-4.68a13.55,13.55,0,0,0,4.82,4.32,13.4,13.4,0,0,0,6.55,1.66,13.26,13.26,0,0,0,3.6-.5,10.12,10.12,0,0,0,3.28-1.58A8.7,8.7,0,0,0,534.5,82a7.73,7.73,0,0,0,.94-3.92,7.11,7.11,0,0,0-1-3.85,8.57,8.57,0,0,0-2.63-2.63A17.38,17.38,0,0,0,528,69.75q-2.2-.76-4.64-1.55a39.84,39.84,0,0,1-4.82-1.76,16.71,16.71,0,0,1-4.25-2.66,12.29,12.29,0,0,1-3-4,13.47,13.47,0,0,1-1.15-5.9,13.1,13.1,0,0,1,1.55-6.55,14.12,14.12,0,0,1,4-4.54,16.82,16.82,0,0,1,5.62-2.63,24.6,24.6,0,0,1,6.3-.83,22,22,0,0,1,8.35,1.58,16.65,16.65,0,0,1,6.26,4.25Z" transform="translate(-92.28 -3.75)"/><circle class="cls-1" cx="60.12" cy="60.12" r="60.12"/><path class="cls-3" d="M158.31,30.12A103.61,103.61,0,0,1,171.8,72.44a91.79,91.79,0,0,1,.11,13.84A21.85,21.85,0,0,1,181.56,76a24.49,24.49,0,0,1,11.55-2.75,168.42,168.42,0,0,0-10.93-16.87A174.71,174.71,0,0,0,158.31,30.12Z" transform="translate(-92.28 -3.75)"/><path class="cls-4" d="M132.82,22.88a129,129,0,0,1,15.72,53.24,118.73,118.73,0,0,1-.19,17.51c0.5-1.44,4.14-11.32,14.62-15.1a24.56,24.56,0,0,1,15.35-.29,73.77,73.77,0,0,0-12-28.91A75.52,75.52,0,0,0,132.82,22.88Z" transform="translate(-92.28 -3.75)"/><path class="cls-4" d="M190.24,92.34l-65.57,10.45L108.55,78c10.1,1.47,32.91,2.56,45.21,2.87A283,283,0,0,0,201.58,78C198,83.73,193.81,86.56,190.24,92.34Z" transform="translate(-92.28 -3.75)"/></svg>