<svg id="圖層_1" data-name="圖層 1" xmlns="http://www.w3.org/2000/svg" viewBox="0 0 744 774.09"><defs><style>.cls-1{fill:#b3b3b3;}.cls-2{fill:#ccc;}.cls-3{fill:#efefef;}.cls-4{fill:#666;}.cls-5{fill:#ff0;}</style></defs><title>warning</title><circle class="cls-1" cx="372" cy="372" r="372"/><path class="cls-2" d="M511.8,250c34.35,60.55,74.29,150.91,83.49,261.85a567.92,567.92,0,0,1,.65,85.61,135.2,135.2,0,0,1,59.72-63.37c29-15.39,57.11-17.11,71.47-17A1042,1042,0,0,0,659.49,412.7,1081,1081,0,0,0,511.8,250Z" transform="translate(-103.25 -86.91)"/><path class="cls-3" d="M354.06,205.25c41.11,75.82,88.45,189.24,97.24,329.44A734.59,734.59,0,0,1,450.09,643c3.11-8.9,25.6-70,90.47-93.44,43.11-15.57,81.26-5.94,94.95-1.77A456.42,456.42,0,0,0,561,368.93C489.5,266.57,395,221.8,354.06,205.25Z" transform="translate(-103.25 -86.91)"/><path class="cls-3" d="M709.36,635L303.64,699.68,203.89,546.06c62.47,9.1,203.61,15.82,279.7,17.73a1751.09,1751.09,0,0,0,295.95-17.73C757.45,581.77,731.46,599.29,709.36,635Z" transform="translate(-103.25 -86.91)"/><polygon class="cls-4" points="582.04 523.73 654.42 648.91 726.8 774.09 582.04 774.09 437.28 774.09 509.66 648.91 582.04 523.73"/><path class="cls-5" d="M704.23,811.76a15.27,15.27,0,0,1-4.92,11.46,16.38,16.38,0,0,1-28-11.67,16.46,16.46,0,0,1,28.13-11.6A16.05,16.05,0,0,1,704.23,811.76Zm-1.76-24.19H673.86V711.7h28.62v75.87Z" transform="translate(-103.25 -86.91)"/><text x="-103.25" y="-86.91"/></svg>