<svg id="圖層_1" data-name="圖層 1" xmlns="http://www.w3.org/2000/svg" viewBox="0 0 381.73 335.68"><defs><style>.cls-1{fill:#fff;}.cls-2{opacity:0.8;}.cls-3{fill:#ddf2c9;}.cls-4{fill:#64b5f6;}.cls-5{fill:#90caf9;}</style></defs><title>p1_word</title><path class="cls-1" d="M352,339.5a33.44,33.44,0,0,1-3.3,4.67c0.19,0.38.35,0.8,0.51,1.22a38.22,38.22,0,0,1,1.47,11.17c0,5.18-.64,8.29-1.86,9.34a4.57,4.57,0,0,1-2.91.86c-1.06,0-1.89,0-2.53-.06l-1-3.07a22.18,22.18,0,0,0,2.82.22,1.79,1.79,0,0,0,1.5-.51c0.54-.77.83-3.07,0.83-6.94,0-.77,0-1.47-0.06-2.11a24,24,0,0,1-4.61,4.74L341,356.24a20.78,20.78,0,0,0,6.11-6.3,25.47,25.47,0,0,0-.77-3.23,1.55,1.55,0,0,0-.1-0.22c-1,.83-2.24,1.76-3.65,2.72l-1.73-2.85a17.17,17.17,0,0,0,4-2.78,18.09,18.09,0,0,0-3-3.65l2.56-2a26.09,26.09,0,0,1,2.62,3.26,33.9,33.9,0,0,0,2.24-3.36Zm4.06,1.89a29.69,29.69,0,0,0-1.5-2.72l2.88-1.18a25.7,25.7,0,0,1,1.82,3.9h3.52a37.23,37.23,0,0,0,1.63-4l3,1.09a27.71,27.71,0,0,1-1.38,2.91h4.38v2.94H365v2.3h4.42V367h-3v-1H355.54v1h-2.91V346.64h4.51v-2.3h-5.5v-2.94h4.42Zm10.33,21.73V356h-1.66c-1.79,0-2.66-.83-2.66-2.46v-4.1h-2v1.22c-0.06,2.72-1,4.74-2.75,6l-1.73-1.5v7.94h10.85Zm-8.67-12.45v-1.22h-2.18v5.15A4.5,4.5,0,0,0,357.72,350.67Zm7.52,7.36v2.69h-8.54V358h8.54Zm-3.1-13.7H360v2.3h2.18v-2.3Zm2.27,8.61a0.85,0.85,0,0,0,1.06.8h0.93v-4.29h-2v3.49Z" transform="translate(-340.86 -31.66)"/><path class="cls-1" d="M381.72,337.58c-0.32,1.89-.61,3.65-0.93,5.28h6.5v1.86a30.47,30.47,0,0,1-3.42,13.38,48,48,0,0,1,4.26,3.42l-2.3,2.78c-1.06-1-2.3-2.14-3.78-3.36a25.56,25.56,0,0,1-6.27,6l-2.24-2.78a23.79,23.79,0,0,0,6-5.28c-1.6-1.25-3.39-2.56-5.31-3.94a91.4,91.4,0,0,0,2.5-8.83h-3.3v-3.26h4c0.35-1.82.67-3.68,1-5.6Zm2.43,8.54h-4a65.81,65.81,0,0,1-2.21,7.81c1.22,0.77,2.34,1.54,3.36,2.27A24.35,24.35,0,0,0,384.15,346.13Zm16.67,19.55h-3.23v-1.92h-5.18v1.92h-3.26V340h11.68v25.69Zm-3.23-5.15V343.25h-5.18v17.28h5.18Z" transform="translate(-340.86 -31.66)"/><path class="cls-1" d="M406.87,357.64l-2.14-2.78a36.79,36.79,0,0,0,8.61-10.14h-7.46v-3.26h9.06a40.93,40.93,0,0,0,1.57-4.32l3.46,0.42c-0.38,1.34-.83,2.62-1.31,3.9h15.49v3.26h-17a39.57,39.57,0,0,1-4.32,6.82v15.65h-3.3v-12C408.7,356,407.8,356.84,406.87,357.64ZM422,352v-5.5h3.39V352h7.33v3.26h-7.33v7.49h8.7V366H414v-3.26h8v-7.49h-6.88V352H422Z" transform="translate(-340.86 -31.66)"/><path class="cls-1" d="M444.44,354.13l-1.76,2.69a25.86,25.86,0,0,0-5.73-3.14l1.79-2.62A27.69,27.69,0,0,1,444.44,354.13Zm2.18,4.93a44.06,44.06,0,0,1-6.91,8.06l-2.27-2.56a39.92,39.92,0,0,0,6.69-7.36ZM445,347.76l-1.7,2.62a26.18,26.18,0,0,0-5.86-3.17l1.73-2.59A30.69,30.69,0,0,1,445,347.76Zm-0.61-7.9v-2.34h3.3v2.34h3.42v3.07H447.7v2.33h-3.3v-2.33h-6.53v-3.07h6.53ZM455.19,349a25.26,25.26,0,0,0-1.31-3l3.46-.58c0.45,1.06.86,2.24,1.31,3.55h7.78v3.2h-14.3v9.54a1.08,1.08,0,0,0,1.31,1.12h11.71V366H452.41c-2.43,0-3.62-1.15-3.62-3.46v-10.4H445.3V349h9.89Zm4-11.46v2.34h6.53v3.07h-6.53v2.33h-3.3v-2.33h-3.46v-3.07h3.46v-2.34h3.3Z" transform="translate(-340.86 -31.66)"/><path class="cls-1" d="M476.44,354.13l-1.76,2.69a25.89,25.89,0,0,0-5.73-3.14l1.79-2.62A27.71,27.71,0,0,1,476.44,354.13Zm2.18,4.93a44,44,0,0,1-6.91,8.06l-2.27-2.56a39.9,39.9,0,0,0,6.69-7.36ZM477,347.76l-1.7,2.62a26.16,26.16,0,0,0-5.86-3.17l1.73-2.59A30.67,30.67,0,0,1,477,347.76Zm-0.61-7.9v-2.34h3.3v2.34h3.42v3.07H479.7v2.33h-3.3v-2.33h-6.53v-3.07h6.53ZM487.19,349a25.34,25.34,0,0,0-1.31-3l3.46-.58c0.45,1.06.86,2.24,1.31,3.55h7.78v3.2h-14.3v9.54a1.08,1.08,0,0,0,1.31,1.12h11.71V366H484.41c-2.43,0-3.62-1.15-3.62-3.46v-10.4H477.3V349h9.89Zm4-11.46v2.34h6.53v3.07h-6.53v2.33h-3.29v-2.33h-3.46v-3.07h3.46v-2.34h3.29Z" transform="translate(-340.86 -31.66)"/><path class="cls-1" d="M524.63,353.9v2.43c-2,.86-4.35,1.73-6.91,2.56v0.38h12.19V362H517.72v2.14c0,1.86-1,2.82-3,2.82H511l-0.74-2.69q1.58,0.1,3.46.1a1,1,0,0,0,1-1.22V362h-13v-2.69h13v-1.5l4.74-1.44H506.68V353.9h18Zm-17.85-7.58h4.35v2.27H507l0.13,1.5h17.34l0.1-1.5h-4.1v-2.27h4.26l0.1-1.41H520.5v-2.24H525l0.13-1.6h-4.9v-2.62h8l-0.74,11.65h2.18v5.5h-3.2v-3.07H505.18v3H502v-5.47h2.08L503.26,339a34.65,34.65,0,0,0,7-1.41l1.06,2.53a35.27,35.27,0,0,1-5,1.09l0.13,1.44H511v2.24h-4.35Zm9.06-6.56a14.73,14.73,0,0,0,1.7-1.76l1.82,1.15a16.32,16.32,0,0,1-1.7,1.86c0.7,0.51,1.34,1,1.92,1.47l-1.31,1.34,1.5,1c-0.64.74-1.25,1.38-1.86,2,0.7,0.51,1.38,1,2,1.5l-1.57,1.57a25.63,25.63,0,0,0-2.18-1.73c-0.86.51-1.89,1.09-3.07,1.7l-1.22-2a10.72,10.72,0,0,0,2.3-1q-0.91-.58-1.92-1.15l1.54-1.54c0.77,0.45,1.54.93,2.27,1.38a16.32,16.32,0,0,0,1.66-1.66,15.61,15.61,0,0,0-1.76-1.44c-0.9.58-2,1.22-3.26,1.89l-1.22-2a13.33,13.33,0,0,0,2.56-1.22c-0.64-.45-1.34-0.86-2.08-1.28l1.5-1.47C514.3,338.8,515.06,339.28,515.83,339.76Z" transform="translate(-340.86 -31.66)"/><path class="cls-1" d="M540.22,349.68L537.85,352a30.52,30.52,0,0,0-4.8-4.22l2.37-2.3A33.46,33.46,0,0,1,540.22,349.68Zm0.48,6.59a91.17,91.17,0,0,1-4.35,10.43l-3.1-1.37a90.08,90.08,0,0,0,4.54-10.21Zm0-14.46-2.37,2.37a28.52,28.52,0,0,0-4.77-4.13l2.37-2.3A31.24,31.24,0,0,1,540.7,341.81Zm4,2.78h15.77c-0.1,2.75-.19,5.18-0.26,7.36h2.46V355h-2.59c-0.1,1.79-.19,3.33-0.26,4.58h2.34v2.88h-2.56a8.92,8.92,0,0,1-.22,1.5,3.76,3.76,0,0,1-1.79,2.3,8.51,8.51,0,0,1-3.94.74c-0.9,0-2,0-3.1,0l-1-3c1.34,0.06,2.56.13,3.65,0.13a8.33,8.33,0,0,0,1.92-.22,2.21,2.21,0,0,0,1.25-1.22,1.62,1.62,0,0,1,.06-0.29H541.27c0.51-2.53,1-5,1.28-7.46h-2.82v-3.07h3.17c0.19-1.92.35-3.84,0.45-5.7-0.45.51-.93,1-1.38,1.47l-2.11-2.56a23.87,23.87,0,0,0,5.18-8l3.33,0.74-0.8,1.79h14.11v3.07H545.91C545.5,343.37,545.08,344,544.66,344.59Zm0.32,15h6.56a24.57,24.57,0,0,0-3.58-3l1.63-1.57h-3.84C545.53,356.65,545.27,358.19,545,359.6Zm1.41-12.13c-0.06,1.57-.19,3.07-0.32,4.48h5.73a24.86,24.86,0,0,0-3.49-2.56l2-1.92h-3.9Zm10.78,0h-6.62a33.84,33.84,0,0,1,3.81,2.75l-1.76,1.73H557C557,350.54,557.11,349.07,557.17,347.47Zm-0.51,12.13c0.06-1.22.13-2.75,0.22-4.58h-6.21a22.75,22.75,0,0,1,3.3,2.75l-1.82,1.82h4.51Z" transform="translate(-340.86 -31.66)"/><path class="cls-1" d="M581.53,337.33v5.47h11.36v15.61h-3.36v-1.76h-8v10.69h-3.46V356.65h-8v1.76h-3.36V342.8h11.33v-5.47h3.46Zm-3.46,16.06v-7.33h-8v7.33h8Zm11.46,0v-7.33h-8v7.33h8Z" transform="translate(-340.86 -31.66)"/><path class="cls-1" d="M602.1,345.74v-4h-4.16v-3.2h14.17q0,19.1-.48,23.61c-0.32,2.94-1.89,4.42-4.64,4.42-0.58,0-1.57-.06-2.91-0.19l-0.83-3a30.81,30.81,0,0,0,3.17.19c1.25,0,2-.93,2.14-2.75,0.06-.77.13-2.3,0.19-4.64H604.6c-0.9,4.61-2.59,8.16-5.15,10.72l-2.5-2.18a16.81,16.81,0,0,0,4.45-8.54H598V353h3.87c0.13-1.25.19-2.56,0.22-3.9v-0.26H598v-3.14h4.1Zm6.75,3.14h-3.62v0.26c0,1.38-.1,2.69-0.19,3.9h3.78C608.82,351.76,608.86,350.38,608.86,348.88Zm0.06-7.1h-3.68v4h3.65C608.89,344.46,608.89,343.15,608.92,341.77Zm17.05-3.2v2.56a86.76,86.76,0,0,1-3.39,9.05c2.46,2.88,3.71,5.22,3.74,7.07,0,2.24-.45,3.78-1.28,4.58s-2.75,1.34-5.5,1.34l-1-3.52c1.25,0.13,2.3.22,3.17,0.22a1.13,1.13,0,0,0,1.09-.58,5.55,5.55,0,0,0,.29-2c0-1.79-1.34-4.16-4-7.07a82.13,82.13,0,0,0,3.26-8.48h-4.8v25.41H614.3V338.57H626Z" transform="translate(-340.86 -31.66)"/><path class="cls-1" d="M637.3,345.2v2.59a43.74,43.74,0,0,1-3.39,4.77h3.71v2.18a31.13,31.13,0,0,1-1.47,5.66,4.07,4.07,0,0,1,.74.61,10.33,10.33,0,0,0,2.88,2,12.88,12.88,0,0,0,4,.61c1.73,0,3.68,0,5.92,0s5.28-.1,9-0.22l-0.77,3.14h-7.81c-2.18,0-4.35-.06-6.5-0.13a15.73,15.73,0,0,1-4.9-.74,10,10,0,0,1-3.62-2.46,1,1,0,0,0-.74-0.35c-0.61,0-1.6,1.38-3,4.19l-2.4-2.24c1.47-2.78,2.88-4.45,4.22-5a27.83,27.83,0,0,0,1.31-4.54H630v-2.5a44.6,44.6,0,0,0,3.68-4.64h-4.19v-3h7.84Zm-0.19-3L635,344.3a31.39,31.39,0,0,0-4.86-4.64l2.18-2A37,37,0,0,1,637.11,342.16Zm5.79-1.41a17.34,17.34,0,0,0-1.54-2.24l3.07-1.18a20,20,0,0,1,1.89,3.42h3.42a28.42,28.42,0,0,0,2-3.42l3.17,1.12a20.54,20.54,0,0,1-1.54,2.3h4.74v3h-8.8c-0.19.64-.38,1.25-0.61,1.82H656v16.16H640.54V345.55h4.67q0.34-.91.58-1.82h-7.55v-3h4.67Zm10,9.41v-1.73h-9.31v1.73h9.31Zm0,4.22v-1.66h-9.31v1.66h9.31Zm0,2.59h-9.31v1.86h9.31V357Z" transform="translate(-340.86 -31.66)"/><path class="cls-1" d="M689.17,338.45v7.2h-8.42V347H685v1.82a26.87,26.87,0,0,0,2.62-2.82l2.18,1.63a25.47,25.47,0,0,1-3.07,3.36h3.36v2.69h-6.69c-0.7.48-1.44,1-2.21,1.41h7.26V367h-3V365.9h-8.26V367h-3.07v-8.67c-0.86.29-1.73,0.58-2.59,0.83l-0.93-2v6.14h-3.07v-1.54H665V364H662V339.41h8.64v17.05a41.86,41.86,0,0,0,7.26-2.75h-6.69V351h6.59v-1.38h-4.9V347h4.9v-1.38h-5.57v-7.2h17ZM667.54,349.2v-6.88H665v6.88h2.5Zm0,9.7v-6.75H665v6.75h2.5Zm9.63-18h-2v2.21h2v-2.21Zm8.29,16.74h-8.26v1.5h8.26v-1.5Zm-8.26,5.6h8.26v-1.6h-8.26v1.6Zm4.51-22.33h-2v2.21h2v-2.21Zm2.43,8.7h-3.39V351h1.63C683,350.54,683.61,350.09,684.15,349.64Zm2.08-8.7h-2v2.21h2v-2.21Z" transform="translate(-340.86 -31.66)"/><path class="cls-1" d="M709.5,337.58v11.36h12.42v3.26h-8.74v9.6c0,0.9.35,1.38,1.09,1.38h3.49a1.13,1.13,0,0,0,1-.7,16.62,16.62,0,0,0,.54-4.48l3.26,1c-0.29,3.52-.74,5.63-1.38,6.3a3.83,3.83,0,0,1-2.85,1h-5.09c-2.3,0-3.46-1.28-3.46-3.78v-10.3H705.3v0a18.18,18.18,0,0,1-2.72,9.66q-2.4,3.36-7.78,5.18l-1.89-3c3.46-1.22,5.79-2.69,7-4.45a14.65,14.65,0,0,0,2-7.42v0h-8.19v-3.26H706.1V337.58h3.39Zm-6.21,8.86-3.17,1.6a51.26,51.26,0,0,0-4.22-7.23l3.17-1.5A71.19,71.19,0,0,1,703.29,346.45Zm16.51-6a37.85,37.85,0,0,1-4.13,7.55l-3.07-1.6a42,42,0,0,0,4.06-7.46Z" transform="translate(-340.86 -31.66)"/><g class="cls-2"><circle class="cls-3" cx="184.42" cy="114.6" r="114.6"/><path class="cls-4" d="M533.14,77.67c11.09,19.55,24,48.73,27,84.56a183.4,183.4,0,0,1,.21,27.65,43.66,43.66,0,0,1,19.29-20.46,48.93,48.93,0,0,1,23.08-5.5,336.51,336.51,0,0,0-21.85-33.72A349.07,349.07,0,0,0,533.14,77.67Z" transform="translate(-340.86 -31.66)"/><path class="cls-5" d="M482.2,63.2c13.28,24.49,28.56,61.11,31.4,106.39a237.22,237.22,0,0,1-.39,35c1-2.87,8.27-22.61,29.22-30.17a49.07,49.07,0,0,1,30.66-.57A147.39,147.39,0,0,0,549,116.06C525.94,83,495.41,68.55,482.2,63.2Z" transform="translate(-340.86 -31.66)"/><path class="cls-5" d="M596.94,202l-131,20.89-32.21-49.61c20.17,2.94,65.75,5.11,90.33,5.72a565.48,565.48,0,0,0,95.57-5.72C612.47,184.79,604.08,190.45,596.94,202Z" transform="translate(-340.86 -31.66)"/></g><path class="cls-1" d="M462.07,314.68a15.93,15.93,0,0,1-6.68,1.32,17.43,17.43,0,0,1-6.36-1.13,14.69,14.69,0,0,1-8.42-8.19,17.43,17.43,0,0,1,0-12.85,14.39,14.39,0,0,1,3.42-4.93,15.16,15.16,0,0,1,5.12-3.13,18.36,18.36,0,0,1,12.54,0,11.87,11.87,0,0,1,4.94,3.25l-4.87,4.87a6,6,0,0,0-2.65-2.06,8.77,8.77,0,0,0-3.36-.67,8.51,8.51,0,0,0-3.46.69,8.13,8.13,0,0,0-2.71,1.91,8.71,8.71,0,0,0-1.76,2.88,10.16,10.16,0,0,0-.63,3.63,10.45,10.45,0,0,0,.63,3.7,8.59,8.59,0,0,0,1.74,2.88,7.83,7.83,0,0,0,2.67,1.87,8.47,8.47,0,0,0,3.4.67,7.91,7.91,0,0,0,3.74-.84,7.24,7.24,0,0,0,2.56-2.18l5,4.7A14.16,14.16,0,0,1,462.07,314.68Z" transform="translate(-340.86 -31.66)"/><path class="cls-1" d="M490.8,314.68a15.93,15.93,0,0,1-6.68,1.32,17.43,17.43,0,0,1-6.36-1.13,14.69,14.69,0,0,1-8.42-8.19,17.43,17.43,0,0,1,0-12.85,14.39,14.39,0,0,1,3.42-4.93,15.16,15.16,0,0,1,5.12-3.13,18.36,18.36,0,0,1,12.54,0,11.87,11.87,0,0,1,4.94,3.25l-4.87,4.87a6,6,0,0,0-2.65-2.06,8.77,8.77,0,0,0-3.36-.67,8.51,8.51,0,0,0-3.46.69,8.13,8.13,0,0,0-2.71,1.91,8.71,8.71,0,0,0-1.76,2.88,10.16,10.16,0,0,0-.63,3.63,10.45,10.45,0,0,0,.63,3.7,8.59,8.59,0,0,0,1.74,2.88,7.83,7.83,0,0,0,2.67,1.87,8.47,8.47,0,0,0,3.4.67,7.91,7.91,0,0,0,3.74-.84,7.24,7.24,0,0,0,2.56-2.18l5,4.7A14.16,14.16,0,0,1,490.8,314.68Z" transform="translate(-340.86 -31.66)"/><path class="cls-1" d="M523,308.88a10.65,10.65,0,0,1-2.58,3.78,11.92,11.92,0,0,1-4.05,2.46,16.26,16.26,0,0,1-10.56,0,11.5,11.5,0,0,1-4-2.46,10.67,10.67,0,0,1-2.52-3.78,13.07,13.07,0,0,1-.88-4.89V285.47h7.14V303.4a8.29,8.29,0,0,0,.32,2.31,5.91,5.91,0,0,0,1,2,4.52,4.52,0,0,0,1.72,1.37,6.87,6.87,0,0,0,5.17,0,4.71,4.71,0,0,0,1.74-1.37,5.44,5.44,0,0,0,1-2,8.87,8.87,0,0,0,.29-2.31V285.47h7.18V304A12.81,12.81,0,0,1,523,308.88Z" transform="translate(-340.86 -31.66)"/><path class="cls-1" d="M530.61,285.47H539a16.31,16.31,0,0,1,4.12.48,9.11,9.11,0,0,1,3.17,1.47,6.63,6.63,0,0,1,2,2.48,8.06,8.06,0,0,1,.71,3.51,7.84,7.84,0,0,1-.73,3.51,6.79,6.79,0,0,1-2.06,2.48,9.35,9.35,0,0,1-3.19,1.49,15.88,15.88,0,0,1-4.14.5h-5.29V315.2h-3V285.47Zm3,13.36h5.12a8.94,8.94,0,0,0,5.42-1.39,4.73,4.73,0,0,0,1.85-4,4.53,4.53,0,0,0-1.91-4.05,9.56,9.56,0,0,0-5.36-1.28h-5.12v10.75Z" transform="translate(-340.86 -31.66)"/><path class="cls-1" d="M558,312.52h13.86v2.69H555V285.47h3v27Z" transform="translate(-340.86 -31.66)"/><path class="cls-1" d="M586.35,316a11.54,11.54,0,0,1-5.5-1.15,9.82,9.82,0,0,1-3.4-2.92A10.74,10.74,0,0,1,575.7,308a17.36,17.36,0,0,1-.48-3.93V285.47h3v18.31a14.56,14.56,0,0,0,.42,3.51,8.77,8.77,0,0,0,1.37,3,7,7,0,0,0,2.5,2.14,9.33,9.33,0,0,0,7.64,0,7.06,7.06,0,0,0,2.5-2.14,8.77,8.77,0,0,0,1.36-3,14.56,14.56,0,0,0,.42-3.51V285.47h3v18.65A17.36,17.36,0,0,1,597,308a10.74,10.74,0,0,1-1.74,3.84,9.78,9.78,0,0,1-3.42,2.92A11.57,11.57,0,0,1,586.35,316Z" transform="translate(-340.86 -31.66)"/><path class="cls-1" d="M619.61,290.26a7.26,7.26,0,0,0-2.48-2.16,7.56,7.56,0,0,0-3.65-.82,7.82,7.82,0,0,0-2.23.34,6.46,6.46,0,0,0-2.06,1,5.28,5.28,0,0,0-1.49,1.74,5.14,5.14,0,0,0-.57,2.48,4.58,4.58,0,0,0,.54,2.35,5.16,5.16,0,0,0,1.45,1.58,8.35,8.35,0,0,0,2.05,1.07q1.15,0.42,2.41.84,1.55,0.5,3.12,1.09a11.26,11.26,0,0,1,2.83,1.53,7.42,7.42,0,0,1,2.05,2.39,7.58,7.58,0,0,1,.8,3.67,8.15,8.15,0,0,1-.85,3.84,8,8,0,0,1-2.2,2.67,9.16,9.16,0,0,1-3.1,1.55,12.57,12.57,0,0,1-3.51.5,13.49,13.49,0,0,1-2.69-.27,12.22,12.22,0,0,1-2.56-.82,10.39,10.39,0,0,1-2.27-1.39,10.08,10.08,0,0,1-1.85-1.93l2.6-1.93a8,8,0,0,0,2.71,2.67,7.66,7.66,0,0,0,4.09,1.07,7.92,7.92,0,0,0,2.31-.36,6.49,6.49,0,0,0,2.12-1.09,6,6,0,0,0,1.55-1.81,5.61,5.61,0,0,0,0-5.08,5.44,5.44,0,0,0-1.62-1.72,9.93,9.93,0,0,0-2.31-1.15q-1.3-.46-2.73-0.92t-2.9-1.05a9.77,9.77,0,0,1-2.56-1.53,7.17,7.17,0,0,1-1.83-2.33,8.53,8.53,0,0,1,.17-7.1,7.8,7.8,0,0,1,2.25-2.56,9.4,9.4,0,0,1,3.07-1.47,12.44,12.44,0,0,1,3.32-.46,11.45,11.45,0,0,1,5.17,1.07,8.87,8.87,0,0,1,3.23,2.54Z" transform="translate(-340.86 -31.66)"/></svg>